<svg width="1048" height="287" viewBox="0 0 1048 287" fill="none" xmlns="http://www.w3.org/2000/svg">
<path d="M37 4L75 77L113.5 4" stroke="#018578" stroke-width="7" stroke-linecap="round" stroke-linejoin="round"/>
<path d="M4 4.5L51 98V240" stroke="#018578" stroke-width="7" stroke-linecap="round" stroke-linejoin="round"/>
<path d="M123.5 49.5L99 98V170" stroke="#018578" stroke-width="7" stroke-linecap="round" stroke-linejoin="round"/>
<path d="M145.5 4L132.5 30.5" stroke="#018578" stroke-width="7" stroke-linecap="round" stroke-linejoin="round"/>
<path d="M78.134 239.283C78.016 240.345 77.603 241.23 76.895 241.938C76.187 242.646 75.361 243 74.417 243C73.237 243 72.293 242.646 71.585 241.938C70.995 241.23 70.7 240.345 70.7 239.283V122.817C70.7 121.755 71.054 120.87 71.762 120.162C72.47 119.454 73.355 119.1 74.417 119.1C75.479 119.1 76.364 119.454 77.072 120.162C77.78 120.87 78.134 121.755 78.134 122.817V239.283ZM145.25 119.1C145.84 119.1 146.43 119.218 147.02 119.454C147.61 119.69 148.141 120.103 148.613 120.693L199.412 196.272H195.872L246.671 120.693C247.615 119.395 248.736 118.864 250.034 119.1C250.978 119.218 251.745 119.631 252.335 120.339C252.925 120.929 253.22 121.696 253.22 122.64V239.46C253.22 240.404 252.807 241.23 251.981 241.938C251.273 242.646 250.447 243 249.503 243C248.441 243 247.556 242.646 246.848 241.938C246.14 241.23 245.786 240.404 245.786 239.46V130.605H247.733L200.12 202.644C199.884 203.116 199.53 203.47 199.058 203.706C198.704 203.942 198.232 204.06 197.642 204.06C197.052 204.06 196.462 203.942 195.872 203.706C195.4 203.47 195.046 203.116 194.81 202.644L146.135 129.189H148.967V239.46C148.967 240.404 148.613 241.23 147.905 241.938C147.197 242.646 146.371 243 145.427 243C144.365 243 143.48 242.646 142.772 241.938C142.182 241.23 141.887 240.404 141.887 239.46V122.64C141.887 121.814 142.182 121.047 142.772 120.339C143.362 119.513 144.188 119.1 145.25 119.1ZM579.644 119.1C580.706 119.1 581.532 119.454 582.122 120.162C582.83 120.87 583.184 121.696 583.184 122.64V199.104C583.184 207.482 581.119 215.152 576.989 222.114C572.859 228.958 567.372 234.445 560.528 238.575C553.684 242.705 546.073 244.77 537.695 244.77C529.317 244.77 521.647 242.705 514.685 238.575C507.841 234.445 502.354 228.958 498.224 222.114C494.094 215.152 492.029 207.482 492.029 199.104V122.64C492.029 121.696 492.324 120.87 492.914 120.162C493.622 119.454 494.566 119.1 495.746 119.1C496.808 119.1 497.693 119.454 498.401 120.162C499.109 120.87 499.463 121.696 499.463 122.64V199.104C499.463 206.184 501.174 212.674 504.596 218.574C508.018 224.356 512.62 229.017 518.402 232.557C524.302 235.979 530.733 237.69 537.695 237.69C544.775 237.69 551.206 235.979 556.988 232.557C562.77 229.017 567.372 224.356 570.794 218.574C574.334 212.674 576.104 206.184 576.104 199.104V122.64C576.104 121.696 576.399 120.87 576.989 120.162C577.697 119.454 578.582 119.1 579.644 119.1ZM736.439 119.1C737.501 119.1 738.327 119.454 738.917 120.162C739.507 120.752 739.802 121.519 739.802 122.463V239.106C739.802 240.404 739.389 241.407 738.563 242.115C737.855 242.705 737.029 243 736.085 243C735.613 243 735.082 242.882 734.492 242.646C734.02 242.41 733.607 242.056 733.253 241.584L651.125 129.366L653.603 128.127V239.991C653.603 240.817 653.249 241.525 652.541 242.115C651.951 242.705 651.184 243 650.24 243C649.178 243 648.352 242.705 647.762 242.115C647.172 241.525 646.877 240.817 646.877 239.991V122.64C646.877 121.342 647.231 120.457 647.939 119.985C648.647 119.395 649.355 119.1 650.063 119.1C650.535 119.1 651.007 119.218 651.479 119.454C651.951 119.572 652.364 119.867 652.718 120.339L734.492 231.849L733.076 235.389V122.463C733.076 121.519 733.43 120.752 734.138 120.162C734.846 119.454 735.613 119.1 736.439 119.1ZM912.838 181.05C912.838 190.49 911.363 199.104 908.413 206.892C905.581 214.68 901.51 221.406 896.2 227.07C890.89 232.734 884.636 237.1 877.438 240.168C870.24 243.236 862.334 244.77 853.72 244.77C845.106 244.77 837.2 243.236 830.002 240.168C822.804 237.1 816.55 232.734 811.24 227.07C805.93 221.406 801.8 214.68 798.85 206.892C796.018 199.104 794.602 190.49 794.602 181.05C794.602 171.61 796.018 162.996 798.85 155.208C801.8 147.42 805.93 140.694 811.24 135.03C816.55 129.366 822.804 125 830.002 121.932C837.2 118.864 845.106 117.33 853.72 117.33C862.334 117.33 870.24 118.864 877.438 121.932C884.636 125 890.89 129.366 896.2 135.03C901.51 140.694 905.581 147.42 908.413 155.208C911.363 162.996 912.838 171.61 912.838 181.05ZM905.404 181.05C905.404 169.722 903.162 159.81 898.678 151.314C894.312 142.818 888.235 136.21 880.447 131.49C872.777 126.77 863.868 124.41 853.72 124.41C843.69 124.41 834.781 126.77 826.993 131.49C819.205 136.21 813.069 142.818 808.585 151.314C804.219 159.81 802.036 169.722 802.036 181.05C802.036 192.378 804.219 202.29 808.585 210.786C813.069 219.282 819.205 225.89 826.993 230.61C834.781 235.33 843.69 237.69 853.72 237.69C863.868 237.69 872.777 235.33 880.447 230.61C888.235 225.89 894.312 219.282 898.678 210.786C903.162 202.29 905.404 192.378 905.404 181.05ZM1000.02 244.77C990.821 244.888 982.915 243.354 976.307 240.168C969.699 236.982 963.327 232.321 957.191 226.185C956.955 225.949 956.719 225.654 956.483 225.3C956.247 224.828 956.129 224.238 956.129 223.53C956.129 222.586 956.542 221.701 957.368 220.875C958.194 219.931 959.079 219.459 960.023 219.459C961.085 219.459 962.088 219.99 963.032 221.052C967.752 226.48 973.239 230.61 979.493 233.442C985.865 236.274 992.473 237.69 999.317 237.69C1005.33 237.69 1010.7 236.746 1015.42 234.858C1020.14 232.852 1023.86 230.079 1026.57 226.539C1029.29 222.881 1030.65 218.633 1030.65 213.795C1030.53 207.777 1028.88 202.939 1025.69 199.281C1022.5 195.623 1018.37 192.614 1013.3 190.254C1008.34 187.894 1003.09 185.711 997.547 183.705C993.181 182.053 988.874 180.342 984.626 178.572C980.378 176.802 976.543 174.678 973.121 172.2C969.699 169.604 966.985 166.418 964.979 162.642C962.973 158.748 961.97 153.969 961.97 148.305C961.97 142.523 963.504 137.331 966.572 132.729C969.758 128.009 974.242 124.292 980.024 121.578C985.924 118.746 992.886 117.33 1000.91 117.33C1007.64 117.33 1014.18 118.569 1020.56 121.047C1026.93 123.407 1031.94 127.006 1035.6 131.844C1036.78 133.496 1037.37 134.735 1037.37 135.561C1037.37 136.387 1036.9 137.213 1035.96 138.039C1035.13 138.865 1034.19 139.278 1033.12 139.278C1032.18 139.278 1031.41 138.924 1030.82 138.216C1028.7 135.384 1026.1 132.965 1023.03 130.959C1020.08 128.835 1016.72 127.242 1012.95 126.18C1009.17 125 1005.16 124.41 1000.91 124.41C995.128 124.41 989.877 125.354 985.157 127.242C980.437 129.13 976.661 131.844 973.829 135.384C970.997 138.806 969.581 143.054 969.581 148.128C969.581 153.556 971.115 158.04 974.183 161.58C977.369 165.002 981.381 167.893 986.219 170.253C991.057 172.495 996.013 174.56 1001.09 176.448C1005.57 177.982 1010 179.693 1014.36 181.581C1018.85 183.351 1022.86 185.593 1026.4 188.307C1030.06 191.021 1032.95 194.443 1035.07 198.573C1037.19 202.703 1038.26 207.895 1038.26 214.149C1038.26 219.577 1036.66 224.592 1033.48 229.194C1030.41 233.796 1026.04 237.513 1020.38 240.345C1014.72 243.177 1007.93 244.652 1000.02 244.77Z" fill="#0C1413"/>
<path d="M320.321 119.1C320.911 119.1 321.501 119.218 322.091 119.454C322.681 119.69 323.212 120.103 323.684 120.693L374.483 196.272H370.943L421.742 120.693C422.686 119.395 423.807 118.864 425.105 119.1C426.049 119.218 426.816 119.631 427.406 120.339C427.996 120.929 428.291 121.696 428.291 122.64V239.46C428.291 240.404 427.878 241.23 427.052 241.938C426.344 242.646 425.518 243 424.574 243C423.512 243 422.627 242.646 421.919 241.938C421.211 241.23 420.857 240.404 420.857 239.46V130.605H422.804L375.191 202.644C374.955 203.116 374.601 203.47 374.129 203.706C373.775 203.942 373.303 204.06 372.713 204.06C372.123 204.06 371.533 203.942 370.943 203.706C370.471 203.47 370.117 203.116 369.881 202.644L321.206 129.189H324.038V239.46C324.038 240.404 323.684 241.23 322.976 241.938C322.268 242.646 321.442 243 320.498 243C319.436 243 318.551 242.646 317.843 241.938C317.253 241.23 316.958 240.404 316.958 239.46V122.64C316.958 121.814 317.253 121.047 317.843 120.339C318.433 119.513 319.259 119.1 320.321 119.1Z" fill="#018578"/>
</svg>
