<svg width="1048" height="287" viewBox="0 0 1048 287" fill="none" xmlns="http://www.w3.org/2000/svg">
<path d="M37 4L75 77L113.5 4" stroke="#018578" stroke-width="7" stroke-linecap="round" stroke-linejoin="round"/>
<path d="M4 4.5L51 98V240" stroke="#018578" stroke-width="7" stroke-linecap="round" stroke-linejoin="round"/>
<path d="M123.5 49.5L99 98V170" stroke="#018578" stroke-width="7" stroke-linecap="round" stroke-linejoin="round"/>
<path d="M145.5 4L132.5 30.5" stroke="#018578" stroke-width="7" stroke-linecap="round" stroke-linejoin="round"/>
<path d="M78.134 239.283C78.016 240.345 77.603 241.23 76.895 241.938C76.187 242.646 75.361 243 74.417 243C73.237 243 72.293 242.646 71.585 241.938C70.995 241.23 70.7 240.345 70.7 239.283V122.817C70.7 121.755 71.054 120.87 71.762 120.162C72.47 119.454 73.355 119.1 74.417 119.1C75.479 119.1 76.364 119.454 77.072 120.162C77.78 120.87 78.134 121.755 78.134 122.817V239.283ZM145.25 119.1C145.84 119.1 146.43 119.218 147.02 119.454C147.61 119.69 148.141 120.103 148.613 120.693L199.412 196.272H195.872L246.671 120.693C247.615 119.395 248.736 118.864 250.034 119.1C250.978 119.218 251.745 119.631 252.335 120.339C252.925 120.929 253.22 121.696 253.22 122.64V239.46C253.22 240.404 252.807 241.23 251.981 241.938C251.273 242.646 250.447 243 249.503 243C248.441 243 247.556 242.646 246.848 241.938C246.14 241.23 245.786 240.404 245.786 239.46V130.605H247.733L200.12 202.644C199.884 203.116 199.53 203.47 199.058 203.706C198.704 203.942 198.232 204.06 197.642 204.06C197.052 204.06 196.462 203.942 195.872 203.706C195.4 203.47 195.046 203.116 194.81 202.644L146.135 129.189H148.967V239.46C148.967 240.404 148.613 241.23 147.905 241.938C147.197 242.646 146.371 243 145.427 243C144.365 243 143.48 242.646 142.772 241.938C142.182 241.23 141.887 240.404 141.887 239.46V122.64C141.887 121.814 142.182 121.047 142.772 120.339C143.362 119.513 144.188 119.1 145.25 119.1ZM579.644 119.1C580.706 119.1 581.532 119.454 582.122 120.162C582.83 120.87 583.184 121.696 583.184 122.64V199.104C583.184 207.482 581.119 215.152 576.989 222.114C572.859 228.958 567.372 234.445 560.528 238.575C553.684 242.705 546.073 244.77 537.695 244.77C529.317 244.77 521.647 242.705 514.685 238.575C507.841 234.445 502.354 228.958 498.224 222.114C494.094 215.152 492.029 207.482 492.029 199.104V122.64C492.029 121.696 492.324 120.87 492.914 120.162C493.622 119.454 494.566 119.1 495.746 119.1C496.808 119.1 497.693 119.454 498.401 120.162C499.109 120.87 499.463 121.696 499.463 122.64V199.104C499.463 206.184 501.174 212.674 504.596 218.574C508.018 224.356 512.62 229.017 518.402 232.557C524.302 235.979 530.733 237.69 537.695 237.69C544.775 237.69 551.206 235.979 556.988 232.557C562.77 229.017 567.372 224.356 570.794 218.574C574.334 212.674 576.104 206.184 576.104 199.104V122.64C576.104 121.696 576.399 120.87 576.989 120.162C577.697 119.454 578.582 119.1 579.644 119.1ZM736.439 119.1C737.501 119.1 738.327 119.454 738.917 120.162C739.507 120.752 739.802 121.519 739.802 122.463V239.106C739.802 240.404 739.389 241.407 738.563 242.115C737.855 242.705 737.029 243 736.085 243C735.613 243 735.082 242.882 734.492 242.646C734.02 242.41 733.607 242.056 733.253 241.584L651.125 129.366L653.603 128.127V239.991C653.603 240.817 653.249 241.525 652.541 242.115C651.951 242.705 651.184 243 650.24 243C649.178 243 648.352 242.705 647.762 242.115C647.172 241.525 646.877 240.817 646.877 239.991V122.64C646.877 121.342 647.231 120.457 647.939 119.985C648.647 119.395 649.355 119.1 650.063 119.1C650.535 119.1 651.007 119.218 651.479 119.454C651.951 119.572 652.364 119.867 652.718 120.339L734.492 231.849L733.076 235.389V122.463C733.076 121.519 733.43 120.752 734.138 120.162C734.846 119.454 735.613 119.1 736.439 119.1ZM912.838 181.05C912.838 190.49 911.363 199.104 908.413 206.892C905.581 214.68 901.51 221.406 896.2 227.07C890.89 232.734 884.636 237.1 877.438 240.168C870.24 243.236 862.334 244.77 853.72 244.77C845.106 244.77 837.2 243.236 830.002 240.168C822.804 237.1 816.55 232.734 811.24 227.07C805.93 221.406 801.8 214.68 798.85 206.892C796.018 199.104 794.602 190.49 794.602 181.05C794.602 171.61 796.018 162.996 798.85 155.208C801.8 147.42 805.93 140.694 811.24 135.03C816.55 129.366 822.804 125 830.002 121.932C837.2 118.864 845.106 117.33 853.72 117.33C862.334 117.33 870.24 118.864 877.438 121.932C884.636 125 890.89 129.366 896.2 135.03C901.51 140.694 905.581 147.42 908.413 155.208C911.363 162.996 912.838 171.61 912.838 181.05ZM905.404 181.05C905.404 169.722 903.162 159.81 898.678 151.314C894.312 142.818 888.235 136.21 880.447 131.49C872.777 126.77 863.868 124.41 853.72 124.41C843.69 124.41 834.781 126.77 826.993 131.49C819.205 136.21 813.069 142.818 808.585 151.314C804.219 159.81 802.036 169.722 802.036 181.05C802.036 192.378 804.219 202.29 808.585 210.786C813.069 219.282 819.205 225.89 826.993 230.61C834.781 235.33 843.69 237.69 853.72 237.69C863.868 237.69 872.777 235.33 880.447 230.61C888.235 225.89 894.312 219.282 898.678 210.786C903.162 202.29 905.404 192.378 905.404 181.05ZM1000.02 244.77C990.821 244.888 982.915 243.354 976.307 240.168C969.699 236.982 963.327 232.321 957.191 226.185C956.955 225.949 956.719 225.654 956.483 225.3C956.247 224.828 956.129 224.238 956.129 223.53C956.129 222.586 956.542 221.701 957.368 220.875C958.194 219.931 959.079 219.459 960.023 219.459C961.085 219.459 962.088 219.99 963.032 221.052C967.752 226.48 973.239 230.61 979.493 233.442C985.865 236.274 992.473 237.69 999.317 237.69C1005.33 237.69 1010.7 236.746 1015.42 234.858C1020.14 232.852 1023.86 230.079 1026.57 226.539C1029.29 222.881 1030.65 218.633 1030.65 213.795C1030.53 207.777 1028.88 202.939 1025.69 199.281C1022.5 195.623 1018.37 192.614 1013.3 190.254C1008.34 187.894 1003.09 185.711 997.547 183.705C993.181 182.053 988.874 180.342 984.626 178.572C980.378 176.802 976.543 174.678 973.121 172.2C969.699 169.604 966.985 166.418 964.979 162.642C962.973 158.748 961.97 153.969 961.97 148.305C961.97 142.523 963.504 137.331 966.572 132.729C969.758 128.009 974.242 124.292 980.024 121.578C985.924 118.746 992.886 117.33 1000.91 117.33C1007.64 117.33 1014.18 118.569 1020.56 121.047C1026.93 123.407 1031.94 127.006 1035.6 131.844C1036.78 133.496 1037.37 134.735 1037.37 135.561C1037.37 136.387 1036.9 137.213 1035.96 138.039C1035.13 138.865 1034.19 139.278 1033.12 139.278C1032.18 139.278 1031.41 138.924 1030.82 138.216C1028.7 135.384 1026.1 132.965 1023.03 130.959C1020.08 128.835 1016.72 127.242 1012.95 126.18C1009.17 125 1005.16 124.41 1000.91 124.41C995.128 124.41 989.877 125.354 985.157 127.242C980.437 129.13 976.661 131.844 973.829 135.384C970.997 138.806 969.581 143.054 969.581 148.128C969.581 153.556 971.115 158.04 974.183 161.58C977.369 165.002 981.381 167.893 986.219 170.253C991.057 172.495 996.013 174.56 1001.09 176.448C1005.57 177.982 1010 179.693 1014.36 181.581C1018.85 183.351 1022.86 185.593 1026.4 188.307C1030.06 191.021 1032.95 194.443 1035.07 198.573C1037.19 202.703 1038.26 207.895 1038.26 214.149C1038.26 219.577 1036.66 224.592 1033.48 229.194C1030.41 233.796 1026.04 237.513 1020.38 240.345C1014.72 243.177 1007.93 244.652 1000.02 244.77Z" fill="#0C1413"/>
<path d="M320.321 119.1C320.911 119.1 321.501 119.218 322.091 119.454C322.681 119.69 323.212 120.103 323.684 120.693L374.483 196.272H370.943L421.742 120.693C422.686 119.395 423.807 118.864 425.105 119.1C426.049 119.218 426.816 119.631 427.406 120.339C427.996 120.929 428.291 121.696 428.291 122.64V239.46C428.291 240.404 427.878 241.23 427.052 241.938C426.344 242.646 425.518 243 424.574 243C423.512 243 422.627 242.646 421.919 241.938C421.211 241.23 420.857 240.404 420.857 239.46V130.605H422.804L375.191 202.644C374.955 203.116 374.601 203.47 374.129 203.706C373.775 203.942 373.303 204.06 372.713 204.06C372.123 204.06 371.533 203.942 370.943 203.706C370.471 203.47 370.117 203.116 369.881 202.644L321.206 129.189H324.038V239.46C324.038 240.404 323.684 241.23 322.976 241.938C322.268 242.646 321.442 243 320.498 243C319.436 243 318.551 242.646 317.843 241.938C317.253 241.23 316.958 240.404 316.958 239.46V122.64C316.958 121.814 317.253 121.047 317.843 120.339C318.433 119.513 319.259 119.1 320.321 119.1Z" fill="#018578"/>
<rect x="914" y="4" width="134" height="76" fill="#016A60"/>
<path d="M955.28 51.752C955.28 53.8053 954.757 55.5973 953.712 57.128C952.667 58.6587 951.248 59.8533 949.456 60.712C947.701 61.5707 945.76 62 943.632 62H924.76V22.24H944.528C946.395 22.24 948 22.744 949.344 23.752C950.725 24.7227 951.771 25.992 952.48 27.56C953.227 29.0907 953.6 30.696 953.6 32.376C953.6 34.3173 953.096 36.1467 952.088 37.864C951.117 39.544 949.717 40.7947 947.888 41.616C950.165 42.288 951.957 43.5387 953.264 45.368C954.608 47.16 955.28 49.288 955.28 51.752ZM950.184 50.856C950.184 49.624 949.904 48.4853 949.344 47.44C948.821 46.3947 948.093 45.5547 947.16 44.92C946.264 44.2853 945.219 43.968 944.024 43.968H929.8V57.632H943.632C944.864 57.632 945.965 57.3147 946.936 56.68C947.944 56.0453 948.728 55.224 949.288 54.216C949.885 53.1707 950.184 52.0507 950.184 50.856ZM929.8 26.608V39.88H942.456C943.651 39.88 944.696 39.5813 945.592 38.984C946.525 38.3867 947.253 37.584 947.776 36.576C948.336 35.568 948.616 34.4667 948.616 33.272C948.616 32.0027 948.355 30.8827 947.832 29.912C947.347 28.904 946.656 28.1013 945.76 27.504C944.901 26.9067 943.912 26.608 942.792 26.608H929.8ZM974.482 62.56C972.28 62.56 970.264 62.168 968.434 61.384C966.642 60.5627 965.074 59.4613 963.73 58.08C962.424 56.6613 961.397 55.0373 960.65 53.208C959.941 51.3787 959.586 49.4373 959.586 47.384C959.586 44.6213 960.221 42.1013 961.49 39.824C962.76 37.5467 964.514 35.7173 966.754 34.336C969.032 32.9547 971.626 32.264 974.538 32.264C977.488 32.264 980.045 32.9733 982.21 34.392C984.413 35.7733 986.112 37.6027 987.306 39.88C988.538 42.12 989.154 44.5467 989.154 47.16C989.154 47.5333 989.136 47.9067 989.098 48.28C989.098 48.616 989.08 48.8773 989.042 49.064H964.794C964.944 50.968 965.466 52.6667 966.362 54.16C967.296 55.616 968.49 56.7733 969.946 57.632C971.402 58.4533 972.97 58.864 974.65 58.864C976.442 58.864 978.122 58.416 979.69 57.52C981.296 56.624 982.397 55.448 982.994 53.992L987.25 55.168C986.616 56.5867 985.664 57.856 984.394 58.976C983.162 60.096 981.688 60.9733 979.97 61.608C978.29 62.2427 976.461 62.56 974.482 62.56ZM964.626 45.648H984.562C984.413 43.744 983.872 42.064 982.938 40.608C982.005 39.152 980.81 38.0133 979.354 37.192C977.898 36.3707 976.293 35.96 974.538 35.96C972.821 35.96 971.234 36.3707 969.778 37.192C968.322 38.0133 967.128 39.152 966.194 40.608C965.298 42.064 964.776 43.744 964.626 45.648ZM1009.48 60.544C1009.07 60.7307 1008.51 60.9733 1007.8 61.272C1007.09 61.5707 1006.27 61.832 1005.33 62.056C1004.4 62.28 1003.41 62.392 1002.37 62.392C1001.17 62.392 1000.07 62.1867 999.063 61.776C998.055 61.328 997.252 60.656 996.655 59.76C996.057 58.8267 995.759 57.6693 995.759 56.288V36.632H991.783V32.768H995.759V23.024H1000.69V32.768H1007.24V36.632H1000.69V54.776C1000.76 55.8213 1001.12 56.6053 1001.75 57.128C1002.39 57.6133 1003.13 57.856 1003.99 57.856C1004.96 57.856 1005.86 57.688 1006.68 57.352C1007.5 57.016 1008.04 56.7733 1008.3 56.624L1009.48 60.544ZM1011.75 53.544C1011.75 51.6773 1012.27 50.072 1013.32 48.728C1014.4 47.3467 1015.88 46.2827 1017.74 45.536C1019.61 44.7893 1021.77 44.416 1024.24 44.416C1025.54 44.416 1026.93 44.528 1028.38 44.752C1029.84 44.9387 1031.13 45.2373 1032.25 45.648V43.52C1032.25 41.28 1031.57 39.5253 1030.23 38.256C1028.89 36.9493 1026.98 36.296 1024.52 36.296C1022.91 36.296 1021.36 36.5947 1019.87 37.192C1018.41 37.752 1016.86 38.5733 1015.22 39.656L1013.43 36.184C1015.33 34.8773 1017.24 33.9067 1019.14 33.272C1021.05 32.6 1023.02 32.264 1025.08 32.264C1028.81 32.264 1031.76 33.3093 1033.93 35.4C1036.09 37.4533 1037.17 40.328 1037.17 44.024V56.4C1037.17 56.9973 1037.29 57.4453 1037.51 57.744C1037.77 58.0053 1038.18 58.1547 1038.74 58.192V62C1038.26 62.0747 1037.83 62.1307 1037.45 62.168C1037.12 62.2053 1036.84 62.224 1036.61 62.224C1035.46 62.224 1034.58 61.9067 1033.98 61.272C1033.42 60.6373 1033.1 59.9653 1033.03 59.256L1032.92 57.408C1031.65 59.0507 1029.99 60.32 1027.93 61.216C1025.88 62.112 1023.85 62.56 1021.83 62.56C1019.89 62.56 1018.15 62.168 1016.62 61.384C1015.09 60.5627 1013.9 59.48 1013.04 58.136C1012.18 56.7547 1011.75 55.224 1011.75 53.544ZM1030.79 55.616C1031.24 55.0933 1031.59 54.5707 1031.85 54.048C1032.12 53.488 1032.25 53.0213 1032.25 52.648V49.008C1031.09 48.56 1029.88 48.224 1028.61 48C1027.34 47.7387 1026.09 47.608 1024.85 47.608C1022.35 47.608 1020.32 48.112 1018.75 49.12C1017.22 50.0907 1016.45 51.4347 1016.45 53.152C1016.45 54.0853 1016.7 55 1017.18 55.896C1017.7 56.7547 1018.45 57.464 1019.42 58.024C1020.43 58.584 1021.66 58.864 1023.12 58.864C1024.65 58.864 1026.1 58.5653 1027.49 57.968C1028.87 57.3333 1029.97 56.5493 1030.79 55.616Z" fill="#FCFCFC"/>
</svg>
