<svg width="532" height="646" viewBox="0 0 532 646" fill="none" xmlns="http://www.w3.org/2000/svg">
<path d="M522 266C522 465.111 266 635.778 266 635.778C266 635.778 10 465.111 10 266C10 198.105 36.9713 132.99 84.9807 84.9806C132.99 36.9713 198.105 10 266 10C333.895 10 399.01 36.9713 447.019 84.9806C495.029 132.99 522 198.105 522 266Z" stroke="#018578" stroke-width="20" stroke-linecap="round" stroke-linejoin="round"/>
<path d="M265.997 351.332C313.126 351.332 351.331 313.127 351.331 265.998C351.331 218.87 313.126 180.665 265.997 180.665C218.869 180.665 180.664 218.87 180.664 265.998C180.664 313.127 218.869 351.332 265.997 351.332Z" stroke="#018578" stroke-width="20" stroke-linecap="round" stroke-linejoin="round"/>
</svg>
