<svg width="542" height="601" viewBox="0 0 542 601" fill="none" xmlns="http://www.w3.org/2000/svg">
<path d="M527 413.164V185.608C526.99 175.632 524.356 165.834 519.364 157.197C514.371 148.56 507.195 141.388 498.556 136.399L299.444 22.6217C290.796 17.6286 280.986 15 271 15C261.014 15 251.204 17.6286 242.556 22.6217L43.4444 136.399C34.8048 141.388 27.6288 148.56 22.6362 157.197C17.6437 165.834 15.0102 175.632 15 185.608V413.164C15.0102 423.14 17.6437 432.938 22.6362 441.575C27.6288 450.212 34.8048 457.385 43.4444 462.373L242.556 576.151C251.204 581.144 261.014 583.772 271 583.772C280.986 583.772 290.796 581.144 299.444 576.151L498.556 462.373C507.195 457.385 514.371 450.212 519.364 441.575C524.356 432.938 526.99 423.14 527 413.164Z" stroke="#018578" stroke-width="28.5" stroke-linecap="round" stroke-linejoin="round"/>
<path d="M22.6807 156.024L271.001 299.669L519.321 156.024" stroke="#018578" stroke-width="28.5" stroke-linecap="round" stroke-linejoin="round"/>
<path d="M271 586.105V299.385" stroke="#018578" stroke-width="28.5" stroke-linecap="round" stroke-linejoin="round"/>
</svg>
