<svg width="512" height="512" viewBox="0 0 512 512" fill="none" xmlns="http://www.w3.org/2000/svg">
<path d="M179 304L220.998 209.859H242.535L284.668 304H261.785L227.325 220.887H235.94L201.345 304H179ZM199.999 283.827L205.787 267.285H254.246L260.169 283.827H199.999Z" fill="#FF7A00"/>
<path d="M292.963 304V231.646H313.962V304H292.963ZM291.213 222.366L309.386 203H332L307.636 222.366H291.213Z" fill="#FF7A00"/>
<path fill-rule="evenodd" clip-rule="evenodd" d="M173.511 114H196.489V133.679H314.511V114H337.489V133.679H349.5C362.425 133.679 373 145.528 373 160.011V397L326 344.336H161.5C148.575 344.336 138 332.486 138 318.004V160.011C138 145.528 148.575 133.679 161.5 133.679H173.511V114ZM161 187H350V320H161V187Z" fill="#FF7A00"/>
</svg>
