<svg width="580" height="235" viewBox="0 0 580 235" fill="none" xmlns="http://www.w3.org/2000/svg">
<path d="M40 143.64V81H52.0281L78.7771 125.206H72.404L98.7042 81H110.643L110.822 143.64H97.1782L97.0885 101.85H99.6018L78.5976 137.018H72.0449L50.5919 101.85H53.6438V143.64H40Z" fill="#FF7A00"/>
<path d="M154.363 143.64V134.244L153.466 132.186V115.362C153.466 112.38 152.538 110.053 150.683 108.383C148.888 106.712 146.105 105.877 142.335 105.877C139.762 105.877 137.219 106.295 134.706 107.13C132.252 107.905 130.158 108.979 128.422 110.351L123.396 100.597C126.029 98.748 129.2 97.3162 132.91 96.302C136.621 95.2878 140.391 94.7808 144.22 94.7808C151.581 94.7808 157.296 96.5108 161.365 99.9709C165.434 103.431 167.469 108.83 167.469 116.168V143.64H154.363ZM139.643 144.356C135.873 144.356 132.641 143.729 129.948 142.477C127.255 141.164 125.191 139.404 123.755 137.197C122.319 134.99 121.6 132.514 121.6 129.77C121.6 126.906 122.289 124.4 123.665 122.253C125.101 120.105 127.345 118.435 130.397 117.242C133.449 115.989 137.428 115.362 142.335 115.362H155.171V123.506H143.861C140.57 123.506 138.296 124.043 137.039 125.116C135.843 126.19 135.244 127.532 135.244 129.143C135.244 130.933 135.932 132.365 137.309 133.438C138.745 134.453 140.69 134.96 143.143 134.96C145.477 134.96 147.572 134.423 149.427 133.349C151.282 132.216 152.628 130.575 153.466 128.427L155.62 134.87C154.603 137.972 152.748 140.329 150.055 141.94C147.362 143.55 143.891 144.356 139.643 144.356Z" fill="#FF7A00"/>
<path d="M180.142 143.64V95.4966H193.516V109.098L191.631 105.161C193.068 101.761 195.372 99.1954 198.543 97.4653C201.715 95.6756 205.574 94.7808 210.122 94.7808V107.667C209.524 107.607 208.985 107.577 208.507 107.577C208.028 107.518 207.519 107.488 206.981 107.488C203.151 107.488 200.039 108.591 197.645 110.799C195.312 112.946 194.145 116.317 194.145 120.911V143.64H180.142Z" fill="#FF7A00"/>
<path d="M238.653 144.356C234.105 144.356 230.006 143.342 226.356 141.313C222.706 139.285 219.803 136.421 217.649 132.723C215.555 129.024 214.507 124.639 214.507 119.568C214.507 114.557 215.555 110.202 217.649 106.503C219.803 102.805 222.706 99.9411 226.356 97.9128C230.006 95.8248 234.105 94.7808 238.653 94.7808C242.902 94.7808 246.522 95.6756 249.514 97.4653C252.566 99.255 254.9 101.969 256.516 105.609C258.132 109.248 258.939 113.901 258.939 119.568C258.939 125.176 258.102 129.829 256.426 133.528C254.751 137.167 252.387 139.881 249.335 141.671C246.283 143.461 242.722 144.356 238.653 144.356ZM241.077 132.902C243.351 132.902 245.415 132.365 247.27 131.291C249.125 130.217 250.592 128.696 251.669 126.727C252.806 124.699 253.374 122.312 253.374 119.568C253.374 116.764 252.806 114.378 251.669 112.409C250.592 110.441 249.125 108.919 247.27 107.846C245.415 106.772 243.351 106.235 241.077 106.235C238.743 106.235 236.649 106.772 234.794 107.846C232.938 108.919 231.442 110.441 230.305 112.409C229.228 114.378 228.69 116.764 228.69 119.568C228.69 122.312 229.228 124.699 230.305 126.727C231.442 128.696 232.938 130.217 234.794 131.291C236.649 132.365 238.743 132.902 241.077 132.902ZM253.105 161V133.886L254.003 119.658L253.733 105.34V95.4966H267.108V161H253.105Z" fill="#FF7A00"/>
<path d="M300.448 144.356C296.439 144.356 292.848 143.58 289.677 142.029C286.565 140.478 284.141 138.122 282.406 134.96C280.67 131.738 279.803 127.652 279.803 122.7V95.4966H293.806V120.642C293.806 124.639 294.643 127.592 296.319 129.501C298.054 131.35 300.478 132.275 303.59 132.275C305.744 132.275 307.659 131.828 309.334 130.933C311.01 129.978 312.326 128.547 313.284 126.638C314.241 124.669 314.72 122.223 314.72 119.3V95.4966H328.723V143.64H315.438V130.396L317.862 134.244C316.246 137.585 313.852 140.12 310.681 141.85C307.569 143.521 304.158 144.356 300.448 144.356Z" fill="#FF7A00"/>
<path d="M365.662 144.356C360.157 144.356 355.309 143.282 351.121 141.134C346.992 138.987 343.79 136.063 341.516 132.365C339.242 128.606 338.105 124.341 338.105 119.568C338.105 114.736 339.212 110.471 341.426 106.772C343.7 103.013 346.782 100.09 350.672 98.0022C354.561 95.8546 358.96 94.7808 363.867 94.7808C368.594 94.7808 372.843 95.7949 376.613 97.8233C380.443 99.7919 383.465 102.655 385.679 106.414C387.893 110.113 389 114.557 389 119.747C389 120.284 388.97 120.911 388.91 121.626C388.85 122.283 388.791 122.909 388.731 123.506H349.505V115.362H381.37L375.985 117.779C375.985 115.273 375.476 113.095 374.459 111.246C373.441 109.397 372.035 107.965 370.24 106.951C368.445 105.877 366.35 105.34 363.956 105.34C361.563 105.34 359.438 105.877 357.583 106.951C355.788 107.965 354.382 109.427 353.365 111.336C352.347 113.185 351.839 115.392 351.839 117.958V120.105C351.839 122.73 352.407 125.057 353.544 127.085C354.741 129.054 356.387 130.575 358.481 131.649C360.635 132.663 363.149 133.17 366.021 133.17C368.594 133.17 370.838 132.782 372.753 132.007C374.728 131.231 376.523 130.068 378.139 128.517L385.589 136.57C383.375 139.076 380.592 141.015 377.241 142.387C373.89 143.699 370.03 144.356 365.662 144.356Z" fill="#FF7A00"/>
<path d="M434 144L457.058 92.735H468.882L492.014 144H479.45L460.531 98.7403H465.261L446.268 144H434ZM445.529 133.015L448.707 124.007H475.312L478.564 133.015H445.529Z" fill="#FF7A00"/>
<path d="M496.568 144V104.599H508.097V144H496.568ZM495.607 99.5459L505.584 89H518L504.624 99.5459H495.607Z" fill="#FF7A00"/>
<path fill-rule="evenodd" clip-rule="evenodd" d="M430.493 40H443.107V50.7782H507.893V40H520.507V50.7782H527.1C534.195 50.7782 540 57.2682 540 65.2004V195L514.2 166.156H423.9C416.805 166.156 411 159.666 411 151.733V65.2004C411 57.2682 416.805 50.7782 423.9 50.7782H430.493V40ZM423.626 79.9823H527.374V152.827H423.626V79.9823Z" fill="#FF7A00"/>
</svg>
