<svg width="200" height="201" viewBox="0 0 200 201" fill="none" xmlns="http://www.w3.org/2000/svg">
<path d="M99.618 163.394C64.8175 163.394 36.6062 135.182 36.6062 100.382" stroke="#003530" stroke-width="4"/>
<path d="M99.2362 163.394C134.037 163.394 162.248 135.182 162.248 100.382" stroke="#003530" stroke-width="4"/>
<path d="M99.618 37.37C64.8175 37.37 36.6062 65.5814 36.6062 100.382" stroke="#4C0A76" stroke-width="4"/>
<path d="M99.618 163.394C64.8175 163.394 36.6062 135.182 36.6062 100.382" stroke="#003530" stroke-width="4"/>
<path d="M99.2362 163.394C134.037 163.394 162.248 135.182 162.248 100.382" stroke="#003530" stroke-width="4"/>
<path d="M99.618 37.37C64.8175 37.37 36.6062 65.5814 36.6062 100.382" stroke="#FCFCFC" stroke-width="4"/>
<path d="M99.2362 37.37C134.037 37.37 162.248 65.5814 162.248 100.382" stroke="#003530" stroke-width="4"/>
<path d="M99.618 163.394C64.8175 163.394 36.6062 135.182 36.6062 100.382" stroke="#FCFCFC" stroke-width="4"/>
<path d="M99.2362 163.394C134.037 163.394 162.248 135.182 162.248 100.382" stroke="#FCFCFC" stroke-width="4"/>
<path d="M99.2362 37.37C134.037 37.37 162.248 65.5814 162.248 100.382" stroke="#FCFCFC" stroke-width="4"/>
<g opacity="0.08">
<path d="M99.863 180.687C55.2253 180.687 19.0393 144.501 19.0393 99.8633" stroke="#E0E1E1" stroke-width="5"/>
<path d="M99.3731 180.687C144.011 180.687 180.197 144.501 180.197 99.8633" stroke="#E0E1E1" stroke-width="5"/>
<path d="M99.863 19.0396C55.2253 19.0396 19.0393 55.2256 19.0393 99.8633" stroke="#E0E1E1" stroke-width="5"/>
<path d="M99.863 180.687C55.2253 180.687 19.0393 144.501 19.0393 99.8633" stroke="#E0E1E1" stroke-width="5"/>
<path d="M99.3731 180.687C144.011 180.687 180.197 144.501 180.197 99.8633" stroke="#E0E1E1" stroke-width="5"/>
<path d="M99.863 19.0396C55.2253 19.0396 19.0393 55.2256 19.0393 99.8633" stroke="#E0E1E1" stroke-width="5"/>
<path d="M99.3731 19.0396C144.011 19.0396 180.197 55.2256 180.197 99.8633" stroke="#E0E1E1" stroke-width="5"/>
</g>
<g opacity="0.03">
<path d="M100.295 197.59C46.5604 197.59 3 154.029 3 100.295" stroke="#D8DAD9" stroke-width="5"/>
<path d="M99.7052 197.59C153.44 197.59 197 154.029 197 100.295" stroke="#D8DAD9" stroke-width="5"/>
<path d="M100.295 3.00008C46.5604 3.00008 3 46.5605 3 100.295" stroke="#D8DAD9" stroke-width="5"/>
<path d="M100.295 197.59C46.5604 197.59 3 154.029 3 100.295" stroke="#D8DAD9" stroke-width="5"/>
<path d="M99.7052 197.59C153.44 197.59 197 154.029 197 100.295" stroke="#D8DAD9" stroke-width="5"/>
<path d="M100.295 3.00008C46.5604 3.00008 3 46.5605 3 100.295" stroke="#D8DAD9" stroke-width="5"/>
<path d="M99.7052 3.00008C153.44 3.00008 197 46.5605 197 100.295" stroke="#D8DAD9" stroke-width="5"/>
</g>
<path d="M125.841 84.8774L103.469 107.142L91.6939 95.4238L74.0315 113.001" stroke="#FCFCFC" stroke-width="3" stroke-linecap="round" stroke-linejoin="round"/>
<path d="M111.711 84.8774H125.841V98.9392" stroke="#FCFCFC" stroke-width="3" stroke-linecap="round" stroke-linejoin="round"/>
</svg>
