<svg width="512" height="512" viewBox="0 0 512 512" fill="none" xmlns="http://www.w3.org/2000/svg">
<path d="M485.789 127.454C491.785 133.45 501.507 133.45 507.503 127.453V127.453C513.499 121.457 513.499 111.735 507.503 105.739L406.26 4.49713C400.264 -1.49905 390.542 -1.49904 384.546 4.49716V4.49716C378.55 10.4934 378.55 20.2152 384.546 26.2114L424.31 65.9758L401.148 89.1374L390.319 78.3079C377.111 65.1008 355.698 65.101 342.491 78.3083L327.523 93.2759L322.502 88.255C316.505 82.259 306.784 82.2592 300.788 88.2554V88.2554C294.791 94.2517 294.791 103.974 300.788 109.97L302.01 111.193L94.0957 319.108C86.0409 327.163 82.5822 338.731 84.894 349.885L94.4233 395.863L4.4972 485.789C-1.49905 491.785 -1.49907 501.507 4.49716 507.503V507.503C10.4934 513.499 20.2151 513.499 26.2113 507.503L116.137 417.578L162.114 427.107C173.269 429.419 184.837 425.96 192.892 417.905L400.808 209.99L402.03 211.213C408.026 217.209 417.748 217.209 423.745 211.213V211.213C429.741 205.216 429.741 195.495 423.745 189.498L418.724 184.477L433.692 169.51C446.899 156.302 446.899 134.889 433.692 121.681L422.863 110.853L446.024 87.691L485.789 127.454ZM169.991 397.376L124.128 387.871L114.623 342.008L144.014 312.617L151.466 305.192L158.639 298.018L165.728 290.903L198.161 258.47L204.757 251.388L212.444 243.701L219.875 236.756L252.308 204.323L259.587 197.071L267.785 188.872L274.022 182.609L323.724 132.907L379.092 188.275L169.991 397.376ZM349.238 114.99L366.406 97.8229L414.177 145.595L397.01 162.762L349.238 114.99Z" fill="#018578"/>
</svg>
